<mxfile host="app.diagrams.net" modified="2024-05-08T08:44:06.220Z" agent="Mozilla/5.0 (Windows NT 10.0; Win64; x64) AppleWebKit/537.36 (KHTML, like Gecko) Chrome/124.0.0.0 Safari/537.36" etag="cSi1TXxb30NC8URZIV48" version="24.3.1" type="github">
  <diagram id="R2lEEEUBdFMjLlhIrx00" name="Page-1">
    <mxGraphModel dx="3717" dy="2356" grid="1" gridSize="10" guides="1" tooltips="1" connect="1" arrows="1" fold="1" page="1" pageScale="1" pageWidth="850" pageHeight="1100" math="0" shadow="0" extFonts="Permanent Marker^https://fonts.googleapis.com/css?family=Permanent+Marker">
      <root>
        <mxCell id="0" />
        <mxCell id="1" parent="0" />
        <mxCell id="fHZ4egSgoJ2Gnob8rH2M-85" style="edgeStyle=orthogonalEdgeStyle;rounded=0;orthogonalLoop=1;jettySize=auto;html=1;exitX=0;exitY=0.5;exitDx=0;exitDy=0;entryX=1;entryY=0.5;entryDx=0;entryDy=0;" edge="1" parent="1" source="fHZ4egSgoJ2Gnob8rH2M-86" target="fHZ4egSgoJ2Gnob8rH2M-6">
          <mxGeometry relative="1" as="geometry" />
        </mxCell>
        <mxCell id="fHZ4egSgoJ2Gnob8rH2M-2" value="Student" style="rounded=0;whiteSpace=wrap;html=1;" vertex="1" parent="1">
          <mxGeometry x="280" y="440" width="200" height="80" as="geometry" />
        </mxCell>
        <mxCell id="fHZ4egSgoJ2Gnob8rH2M-95" style="edgeStyle=orthogonalEdgeStyle;rounded=0;orthogonalLoop=1;jettySize=auto;html=1;exitX=0;exitY=0.5;exitDx=0;exitDy=0;entryX=0.5;entryY=0;entryDx=0;entryDy=0;" edge="1" parent="1" source="fHZ4egSgoJ2Gnob8rH2M-96" target="fHZ4egSgoJ2Gnob8rH2M-6">
          <mxGeometry relative="1" as="geometry" />
        </mxCell>
        <mxCell id="fHZ4egSgoJ2Gnob8rH2M-3" value="Books" style="rounded=0;whiteSpace=wrap;html=1;" vertex="1" parent="1">
          <mxGeometry x="-120" y="60" width="200" height="80" as="geometry" />
        </mxCell>
        <mxCell id="fHZ4egSgoJ2Gnob8rH2M-91" style="edgeStyle=orthogonalEdgeStyle;rounded=0;orthogonalLoop=1;jettySize=auto;html=1;exitX=0.5;exitY=1;exitDx=0;exitDy=0;entryX=0.5;entryY=1;entryDx=0;entryDy=0;" edge="1" parent="1" source="fHZ4egSgoJ2Gnob8rH2M-92" target="fHZ4egSgoJ2Gnob8rH2M-45">
          <mxGeometry relative="1" as="geometry">
            <mxPoint x="1430" y="780" as="targetPoint" />
            <Array as="points">
              <mxPoint x="1180" y="520" />
              <mxPoint x="1400" y="520" />
            </Array>
          </mxGeometry>
        </mxCell>
        <mxCell id="fHZ4egSgoJ2Gnob8rH2M-4" value="Libarian" style="rounded=0;whiteSpace=wrap;html=1;" vertex="1" parent="1">
          <mxGeometry x="840" y="160" width="200" height="80" as="geometry" />
        </mxCell>
        <mxCell id="fHZ4egSgoJ2Gnob8rH2M-6" value="Room" style="rounded=0;whiteSpace=wrap;html=1;" vertex="1" parent="1">
          <mxGeometry x="-400" y="200" width="160" height="80" as="geometry" />
        </mxCell>
        <mxCell id="fHZ4egSgoJ2Gnob8rH2M-7" value="Student_ID" style="ellipse;whiteSpace=wrap;html=1;" vertex="1" parent="1">
          <mxGeometry x="40" y="560" width="80" height="40" as="geometry" />
        </mxCell>
        <mxCell id="fHZ4egSgoJ2Gnob8rH2M-8" value="Name" style="ellipse;whiteSpace=wrap;html=1;" vertex="1" parent="1">
          <mxGeometry x="160" y="560" width="80" height="40" as="geometry" />
        </mxCell>
        <mxCell id="fHZ4egSgoJ2Gnob8rH2M-9" value="Libarian_ID" style="ellipse;whiteSpace=wrap;html=1;" vertex="1" parent="1">
          <mxGeometry x="1080" y="40" width="80" height="40" as="geometry" />
        </mxCell>
        <mxCell id="fHZ4egSgoJ2Gnob8rH2M-10" value="Phone number" style="ellipse;whiteSpace=wrap;html=1;" vertex="1" parent="1">
          <mxGeometry x="520" y="560" width="80" height="40" as="geometry" />
        </mxCell>
        <mxCell id="fHZ4egSgoJ2Gnob8rH2M-11" value="Email" style="ellipse;whiteSpace=wrap;html=1;" vertex="1" parent="1">
          <mxGeometry x="400" y="560" width="80" height="40" as="geometry" />
        </mxCell>
        <mxCell id="fHZ4egSgoJ2Gnob8rH2M-12" value="Dob" style="ellipse;whiteSpace=wrap;html=1;" vertex="1" parent="1">
          <mxGeometry x="280" y="560" width="80" height="40" as="geometry" />
        </mxCell>
        <mxCell id="fHZ4egSgoJ2Gnob8rH2M-13" value="Account Status" style="ellipse;whiteSpace=wrap;html=1;" vertex="1" parent="1">
          <mxGeometry x="640" y="560" width="80" height="40" as="geometry" />
        </mxCell>
        <mxCell id="fHZ4egSgoJ2Gnob8rH2M-14" value="Book_ID" style="ellipse;whiteSpace=wrap;html=1;" vertex="1" parent="1">
          <mxGeometry x="-200" y="-120" width="80" height="40" as="geometry" />
        </mxCell>
        <mxCell id="fHZ4egSgoJ2Gnob8rH2M-15" value="Name" style="ellipse;whiteSpace=wrap;html=1;" vertex="1" parent="1">
          <mxGeometry x="-80" y="-120" width="80" height="40" as="geometry" />
        </mxCell>
        <mxCell id="fHZ4egSgoJ2Gnob8rH2M-16" value="Origin" style="ellipse;whiteSpace=wrap;html=1;" vertex="1" parent="1">
          <mxGeometry x="120" y="-40" width="80" height="40" as="geometry" />
        </mxCell>
        <mxCell id="fHZ4egSgoJ2Gnob8rH2M-17" value="Publisher" style="ellipse;whiteSpace=wrap;html=1;" vertex="1" parent="1">
          <mxGeometry x="160" y="-120" width="80" height="40" as="geometry" />
        </mxCell>
        <mxCell id="fHZ4egSgoJ2Gnob8rH2M-18" value="Author" style="ellipse;whiteSpace=wrap;html=1;" vertex="1" parent="1">
          <mxGeometry x="40" y="-120" width="80" height="40" as="geometry" />
        </mxCell>
        <mxCell id="fHZ4egSgoJ2Gnob8rH2M-19" value="&amp;nbsp;Status" style="ellipse;whiteSpace=wrap;html=1;" vertex="1" parent="1">
          <mxGeometry x="-240" y="-40" width="80" height="40" as="geometry" />
        </mxCell>
        <mxCell id="fHZ4egSgoJ2Gnob8rH2M-32" value="Published Year" style="ellipse;whiteSpace=wrap;html=1;" vertex="1" parent="1">
          <mxGeometry x="-120" y="-40" width="80" height="40" as="geometry" />
        </mxCell>
        <mxCell id="fHZ4egSgoJ2Gnob8rH2M-33" value="Category" style="ellipse;whiteSpace=wrap;html=1;" vertex="1" parent="1">
          <mxGeometry y="-40" width="80" height="40" as="geometry" />
        </mxCell>
        <mxCell id="fHZ4egSgoJ2Gnob8rH2M-35" value="Room_ID" style="ellipse;whiteSpace=wrap;html=1;" vertex="1" parent="1">
          <mxGeometry x="-560" y="120" width="80" height="40" as="geometry" />
        </mxCell>
        <mxCell id="fHZ4egSgoJ2Gnob8rH2M-36" value="Floor" style="ellipse;whiteSpace=wrap;html=1;" vertex="1" parent="1">
          <mxGeometry x="-560" y="360" width="80" height="40" as="geometry" />
        </mxCell>
        <mxCell id="fHZ4egSgoJ2Gnob8rH2M-37" value="Function" style="ellipse;whiteSpace=wrap;html=1;" vertex="1" parent="1">
          <mxGeometry x="-560" y="280" width="80" height="40" as="geometry" />
        </mxCell>
        <mxCell id="fHZ4egSgoJ2Gnob8rH2M-38" value="Room number" style="ellipse;whiteSpace=wrap;html=1;" vertex="1" parent="1">
          <mxGeometry x="-560" y="200" width="80" height="40" as="geometry" />
        </mxCell>
        <mxCell id="fHZ4egSgoJ2Gnob8rH2M-40" value="Phone number" style="ellipse;whiteSpace=wrap;html=1;" vertex="1" parent="1">
          <mxGeometry x="1080" y="360" width="80" height="40" as="geometry" />
        </mxCell>
        <mxCell id="fHZ4egSgoJ2Gnob8rH2M-41" value="Email" style="ellipse;whiteSpace=wrap;html=1;" vertex="1" parent="1">
          <mxGeometry x="1080" y="280" width="80" height="40" as="geometry" />
        </mxCell>
        <mxCell id="fHZ4egSgoJ2Gnob8rH2M-42" value="Name" style="ellipse;whiteSpace=wrap;html=1;" vertex="1" parent="1">
          <mxGeometry x="1080" y="120" width="80" height="40" as="geometry" />
        </mxCell>
        <mxCell id="fHZ4egSgoJ2Gnob8rH2M-43" value="Dob" style="ellipse;whiteSpace=wrap;html=1;" vertex="1" parent="1">
          <mxGeometry x="1080" y="200" width="80" height="40" as="geometry" />
        </mxCell>
        <mxCell id="fHZ4egSgoJ2Gnob8rH2M-45" value="Schedule" style="rounded=0;whiteSpace=wrap;html=1;" vertex="1" parent="1">
          <mxGeometry x="1320" y="240" width="160" height="80" as="geometry" />
        </mxCell>
        <mxCell id="fHZ4egSgoJ2Gnob8rH2M-46" value="Libarian name" style="ellipse;whiteSpace=wrap;html=1;" vertex="1" parent="1">
          <mxGeometry x="1520" y="320" width="80" height="40" as="geometry" />
        </mxCell>
        <mxCell id="fHZ4egSgoJ2Gnob8rH2M-47" value="Libarian_ID" style="ellipse;whiteSpace=wrap;html=1;" vertex="1" parent="1">
          <mxGeometry x="1520" y="240" width="80" height="40" as="geometry" />
        </mxCell>
        <mxCell id="fHZ4egSgoJ2Gnob8rH2M-48" value="TimeTable" style="ellipse;whiteSpace=wrap;html=1;" vertex="1" parent="1">
          <mxGeometry x="1520" y="160" width="80" height="40" as="geometry" />
        </mxCell>
        <mxCell id="fHZ4egSgoJ2Gnob8rH2M-49" value="Libarian phone number" style="ellipse;whiteSpace=wrap;html=1;" vertex="1" parent="1">
          <mxGeometry x="1520" y="400" width="80" height="40" as="geometry" />
        </mxCell>
        <mxCell id="fHZ4egSgoJ2Gnob8rH2M-82" style="edgeStyle=orthogonalEdgeStyle;rounded=0;orthogonalLoop=1;jettySize=auto;html=1;exitX=0.5;exitY=0;exitDx=0;exitDy=0;entryX=0.5;entryY=1;entryDx=0;entryDy=0;" edge="1" parent="1" source="fHZ4egSgoJ2Gnob8rH2M-83" target="fHZ4egSgoJ2Gnob8rH2M-6">
          <mxGeometry relative="1" as="geometry" />
        </mxCell>
        <mxCell id="fHZ4egSgoJ2Gnob8rH2M-50" value="Event" style="rounded=0;whiteSpace=wrap;html=1;" vertex="1" parent="1">
          <mxGeometry x="-520" y="600" width="160" height="80" as="geometry" />
        </mxCell>
        <mxCell id="fHZ4egSgoJ2Gnob8rH2M-51" value="Event name" style="ellipse;whiteSpace=wrap;html=1;" vertex="1" parent="1">
          <mxGeometry x="-640" y="490" width="80" height="40" as="geometry" />
        </mxCell>
        <mxCell id="fHZ4egSgoJ2Gnob8rH2M-52" value="Room" style="ellipse;whiteSpace=wrap;html=1;" vertex="1" parent="1">
          <mxGeometry x="-640" y="730" width="80" height="40" as="geometry" />
        </mxCell>
        <mxCell id="fHZ4egSgoJ2Gnob8rH2M-53" value="Sponsor" style="ellipse;whiteSpace=wrap;html=1;" vertex="1" parent="1">
          <mxGeometry x="-640" y="650" width="80" height="40" as="geometry" />
        </mxCell>
        <mxCell id="fHZ4egSgoJ2Gnob8rH2M-54" value="Organizer" style="ellipse;whiteSpace=wrap;html=1;" vertex="1" parent="1">
          <mxGeometry x="-640" y="570" width="80" height="40" as="geometry" />
        </mxCell>
        <mxCell id="fHZ4egSgoJ2Gnob8rH2M-55" value="Date" style="ellipse;whiteSpace=wrap;html=1;" vertex="1" parent="1">
          <mxGeometry x="-760" y="490" width="80" height="40" as="geometry" />
        </mxCell>
        <mxCell id="fHZ4egSgoJ2Gnob8rH2M-59" value="Floor" style="ellipse;whiteSpace=wrap;html=1;" vertex="1" parent="1">
          <mxGeometry x="-760" y="560" width="80" height="40" as="geometry" />
        </mxCell>
        <mxCell id="fHZ4egSgoJ2Gnob8rH2M-62" value="" style="edgeStyle=orthogonalEdgeStyle;rounded=0;orthogonalLoop=1;jettySize=auto;html=1;exitX=0.5;exitY=0;exitDx=0;exitDy=0;entryX=0.5;entryY=1;entryDx=0;entryDy=0;" edge="1" parent="1" source="fHZ4egSgoJ2Gnob8rH2M-2" target="fHZ4egSgoJ2Gnob8rH2M-61">
          <mxGeometry relative="1" as="geometry">
            <mxPoint x="380" y="440" as="sourcePoint" />
            <mxPoint x="260" y="140" as="targetPoint" />
          </mxGeometry>
        </mxCell>
        <mxCell id="fHZ4egSgoJ2Gnob8rH2M-75" style="edgeStyle=orthogonalEdgeStyle;rounded=0;orthogonalLoop=1;jettySize=auto;html=1;entryX=0.5;entryY=1;entryDx=0;entryDy=0;" edge="1" parent="1" source="fHZ4egSgoJ2Gnob8rH2M-61" target="fHZ4egSgoJ2Gnob8rH2M-63">
          <mxGeometry relative="1" as="geometry" />
        </mxCell>
        <mxCell id="fHZ4egSgoJ2Gnob8rH2M-61" value="Book Order" style="rhombus;whiteSpace=wrap;html=1;" vertex="1" parent="1">
          <mxGeometry x="280" y="250" width="80" height="80" as="geometry" />
        </mxCell>
        <mxCell id="fHZ4egSgoJ2Gnob8rH2M-88" style="edgeStyle=orthogonalEdgeStyle;rounded=0;orthogonalLoop=1;jettySize=auto;html=1;exitX=0;exitY=0.5;exitDx=0;exitDy=0;entryX=1;entryY=0.5;entryDx=0;entryDy=0;" edge="1" parent="1" source="fHZ4egSgoJ2Gnob8rH2M-89" target="fHZ4egSgoJ2Gnob8rH2M-3">
          <mxGeometry relative="1" as="geometry" />
        </mxCell>
        <mxCell id="fHZ4egSgoJ2Gnob8rH2M-63" value="Order" style="rounded=0;whiteSpace=wrap;html=1;" vertex="1" parent="1">
          <mxGeometry x="440" y="40" width="200" height="80" as="geometry" />
        </mxCell>
        <mxCell id="fHZ4egSgoJ2Gnob8rH2M-64" value="Order_ID" style="ellipse;whiteSpace=wrap;html=1;" vertex="1" parent="1">
          <mxGeometry x="380" y="-120" width="80" height="40" as="geometry" />
        </mxCell>
        <mxCell id="fHZ4egSgoJ2Gnob8rH2M-65" value="Book_ID" style="ellipse;whiteSpace=wrap;html=1;" vertex="1" parent="1">
          <mxGeometry x="500" y="-120" width="80" height="40" as="geometry" />
        </mxCell>
        <mxCell id="fHZ4egSgoJ2Gnob8rH2M-66" value="Order Status" style="ellipse;whiteSpace=wrap;html=1;" vertex="1" parent="1">
          <mxGeometry x="700" y="-40" width="80" height="40" as="geometry" />
        </mxCell>
        <mxCell id="fHZ4egSgoJ2Gnob8rH2M-67" value="Date" style="ellipse;whiteSpace=wrap;html=1;" vertex="1" parent="1">
          <mxGeometry x="740" y="-120" width="80" height="40" as="geometry" />
        </mxCell>
        <mxCell id="fHZ4egSgoJ2Gnob8rH2M-68" value="Student_ID" style="ellipse;whiteSpace=wrap;html=1;" vertex="1" parent="1">
          <mxGeometry x="620" y="-120" width="80" height="40" as="geometry" />
        </mxCell>
        <mxCell id="fHZ4egSgoJ2Gnob8rH2M-69" value="Quantity" style="ellipse;whiteSpace=wrap;html=1;" vertex="1" parent="1">
          <mxGeometry x="340" y="-40" width="80" height="40" as="geometry" />
        </mxCell>
        <mxCell id="fHZ4egSgoJ2Gnob8rH2M-70" value="Book Status" style="ellipse;whiteSpace=wrap;html=1;" vertex="1" parent="1">
          <mxGeometry x="460" y="-40" width="80" height="40" as="geometry" />
        </mxCell>
        <mxCell id="fHZ4egSgoJ2Gnob8rH2M-71" value="Expiration Date" style="ellipse;whiteSpace=wrap;html=1;" vertex="1" parent="1">
          <mxGeometry x="580" y="-40" width="80" height="40" as="geometry" />
        </mxCell>
        <mxCell id="fHZ4egSgoJ2Gnob8rH2M-72" value="Book Return Date" style="ellipse;whiteSpace=wrap;html=1;" vertex="1" parent="1">
          <mxGeometry x="820" y="-40" width="80" height="40" as="geometry" />
        </mxCell>
        <mxCell id="fHZ4egSgoJ2Gnob8rH2M-76" style="edgeStyle=orthogonalEdgeStyle;rounded=0;orthogonalLoop=1;jettySize=auto;html=1;exitX=0;exitY=0.5;exitDx=0;exitDy=0;entryX=0.6;entryY=1.019;entryDx=0;entryDy=0;entryPerimeter=0;" edge="1" parent="1" source="fHZ4egSgoJ2Gnob8rH2M-77" target="fHZ4egSgoJ2Gnob8rH2M-63">
          <mxGeometry relative="1" as="geometry" />
        </mxCell>
        <mxCell id="fHZ4egSgoJ2Gnob8rH2M-78" value="" style="edgeStyle=orthogonalEdgeStyle;rounded=0;orthogonalLoop=1;jettySize=auto;html=1;exitX=0;exitY=0.5;exitDx=0;exitDy=0;entryX=1;entryY=0.5;entryDx=0;entryDy=0;" edge="1" parent="1" source="fHZ4egSgoJ2Gnob8rH2M-4" target="fHZ4egSgoJ2Gnob8rH2M-77">
          <mxGeometry relative="1" as="geometry">
            <mxPoint x="840" y="200" as="sourcePoint" />
            <mxPoint x="560" y="122" as="targetPoint" />
          </mxGeometry>
        </mxCell>
        <mxCell id="fHZ4egSgoJ2Gnob8rH2M-77" value="Execute Order" style="rhombus;whiteSpace=wrap;html=1;" vertex="1" parent="1">
          <mxGeometry x="640" y="160" width="80" height="80" as="geometry" />
        </mxCell>
        <mxCell id="fHZ4egSgoJ2Gnob8rH2M-79" style="edgeStyle=orthogonalEdgeStyle;rounded=0;orthogonalLoop=1;jettySize=auto;html=1;exitX=0.75;exitY=0;exitDx=0;exitDy=0;entryX=0.11;entryY=1.006;entryDx=0;entryDy=0;entryPerimeter=0;" edge="1" parent="1" source="fHZ4egSgoJ2Gnob8rH2M-80" target="fHZ4egSgoJ2Gnob8rH2M-4">
          <mxGeometry relative="1" as="geometry" />
        </mxCell>
        <mxCell id="fHZ4egSgoJ2Gnob8rH2M-81" value="" style="edgeStyle=orthogonalEdgeStyle;rounded=0;orthogonalLoop=1;jettySize=auto;html=1;exitX=0.75;exitY=0;exitDx=0;exitDy=0;entryX=0.11;entryY=1.006;entryDx=0;entryDy=0;entryPerimeter=0;" edge="1" parent="1" source="fHZ4egSgoJ2Gnob8rH2M-2" target="fHZ4egSgoJ2Gnob8rH2M-80">
          <mxGeometry relative="1" as="geometry">
            <mxPoint x="430" y="440" as="sourcePoint" />
            <mxPoint x="862" y="240" as="targetPoint" />
          </mxGeometry>
        </mxCell>
        <mxCell id="fHZ4egSgoJ2Gnob8rH2M-80" value="Receive/Return Book" style="rhombus;whiteSpace=wrap;html=1;" vertex="1" parent="1">
          <mxGeometry x="600" y="300" width="80" height="80" as="geometry" />
        </mxCell>
        <mxCell id="fHZ4egSgoJ2Gnob8rH2M-84" value="" style="edgeStyle=orthogonalEdgeStyle;rounded=0;orthogonalLoop=1;jettySize=auto;html=1;exitX=0.5;exitY=0;exitDx=0;exitDy=0;entryX=0.5;entryY=1;entryDx=0;entryDy=0;" edge="1" parent="1" source="fHZ4egSgoJ2Gnob8rH2M-50" target="fHZ4egSgoJ2Gnob8rH2M-83">
          <mxGeometry relative="1" as="geometry">
            <mxPoint x="-440" y="600" as="sourcePoint" />
            <mxPoint x="-320" y="280" as="targetPoint" />
          </mxGeometry>
        </mxCell>
        <mxCell id="fHZ4egSgoJ2Gnob8rH2M-83" value="Follows" style="rhombus;whiteSpace=wrap;html=1;" vertex="1" parent="1">
          <mxGeometry x="-425" y="400" width="80" height="80" as="geometry" />
        </mxCell>
        <mxCell id="fHZ4egSgoJ2Gnob8rH2M-87" value="" style="edgeStyle=orthogonalEdgeStyle;rounded=0;orthogonalLoop=1;jettySize=auto;html=1;exitX=0;exitY=0.5;exitDx=0;exitDy=0;entryX=1;entryY=0.5;entryDx=0;entryDy=0;" edge="1" parent="1" source="fHZ4egSgoJ2Gnob8rH2M-2" target="fHZ4egSgoJ2Gnob8rH2M-86">
          <mxGeometry relative="1" as="geometry">
            <mxPoint x="280" y="480" as="sourcePoint" />
            <mxPoint x="-240" y="240" as="targetPoint" />
          </mxGeometry>
        </mxCell>
        <mxCell id="fHZ4egSgoJ2Gnob8rH2M-86" value="Check in/Check out" style="rhombus;whiteSpace=wrap;html=1;" vertex="1" parent="1">
          <mxGeometry x="-20" y="320" width="80" height="80" as="geometry" />
        </mxCell>
        <mxCell id="fHZ4egSgoJ2Gnob8rH2M-90" value="" style="edgeStyle=orthogonalEdgeStyle;rounded=0;orthogonalLoop=1;jettySize=auto;html=1;exitX=0;exitY=0.5;exitDx=0;exitDy=0;entryX=1;entryY=0.5;entryDx=0;entryDy=0;" edge="1" parent="1" source="fHZ4egSgoJ2Gnob8rH2M-63" target="fHZ4egSgoJ2Gnob8rH2M-89">
          <mxGeometry relative="1" as="geometry">
            <mxPoint x="440" y="80" as="sourcePoint" />
            <mxPoint x="80" y="100" as="targetPoint" />
          </mxGeometry>
        </mxCell>
        <mxCell id="fHZ4egSgoJ2Gnob8rH2M-89" value="Contains" style="rhombus;whiteSpace=wrap;html=1;" vertex="1" parent="1">
          <mxGeometry x="220" y="50" width="80" height="80" as="geometry" />
        </mxCell>
        <mxCell id="fHZ4egSgoJ2Gnob8rH2M-94" value="" style="edgeStyle=orthogonalEdgeStyle;rounded=0;orthogonalLoop=1;jettySize=auto;html=1;exitX=0.5;exitY=1;exitDx=0;exitDy=0;entryX=0.5;entryY=1;entryDx=0;entryDy=0;" edge="1" parent="1" source="fHZ4egSgoJ2Gnob8rH2M-4" target="fHZ4egSgoJ2Gnob8rH2M-92">
          <mxGeometry relative="1" as="geometry">
            <mxPoint x="1400" y="320" as="targetPoint" />
            <mxPoint x="940" y="240" as="sourcePoint" />
            <Array as="points" />
          </mxGeometry>
        </mxCell>
        <mxCell id="fHZ4egSgoJ2Gnob8rH2M-92" value="Follows" style="rhombus;whiteSpace=wrap;html=1;" vertex="1" parent="1">
          <mxGeometry x="1140" y="480" width="80" height="80" as="geometry" />
        </mxCell>
        <mxCell id="fHZ4egSgoJ2Gnob8rH2M-97" value="" style="edgeStyle=orthogonalEdgeStyle;rounded=0;orthogonalLoop=1;jettySize=auto;html=1;exitX=0;exitY=0.5;exitDx=0;exitDy=0;entryX=0.5;entryY=0;entryDx=0;entryDy=0;" edge="1" parent="1" source="fHZ4egSgoJ2Gnob8rH2M-3" target="fHZ4egSgoJ2Gnob8rH2M-96">
          <mxGeometry relative="1" as="geometry">
            <mxPoint x="-120" y="100" as="sourcePoint" />
            <mxPoint x="-320" y="200" as="targetPoint" />
          </mxGeometry>
        </mxCell>
        <mxCell id="fHZ4egSgoJ2Gnob8rH2M-96" value="Stored in" style="rhombus;whiteSpace=wrap;html=1;" vertex="1" parent="1">
          <mxGeometry x="-300" y="60" width="80" height="80" as="geometry" />
        </mxCell>
      </root>
    </mxGraphModel>
  </diagram>
</mxfile>
